<svg width="208" height="183" viewBox="0 0 208 183" fill="none" xmlns="http://www.w3.org/2000/svg">
<rect width="208" height="183" fill="#D9D9D9"/>
<path d="M17.4091 100.818V96.75H18.1591C18.4167 96.5152 18.6591 96.1837 18.8864 95.7557C19.1174 95.3239 19.3125 94.7481 19.4716 94.0284C19.6345 93.3049 19.7424 92.3864 19.7955 91.2727L20.0455 86.3636H26.9545V96.75H28.2955V100.795H26.9545V98H18.75V100.818H17.4091ZM19.8409 96.75H25.6136V87.6136H21.3182L21.1364 91.2727C21.0909 92.1212 21.0114 92.8902 20.8977 93.5795C20.7841 94.2652 20.6383 94.8731 20.4602 95.4034C20.2822 95.9299 20.0758 96.3788 19.8409 96.75ZM33.7884 98.1818C33.0005 98.1818 32.3092 97.9943 31.7145 97.6193C31.1236 97.2443 30.6615 96.7197 30.3281 96.0455C29.9986 95.3712 29.8338 94.5833 29.8338 93.6818C29.8338 92.7727 29.9986 91.9792 30.3281 91.3011C30.6615 90.6231 31.1236 90.0966 31.7145 89.7216C32.3092 89.3466 33.0005 89.1591 33.7884 89.1591C34.5762 89.1591 35.2656 89.3466 35.8565 89.7216C36.4512 90.0966 36.9134 90.6231 37.2429 91.3011C37.5762 91.9792 37.7429 92.7727 37.7429 93.6818C37.7429 94.5833 37.5762 95.3712 37.2429 96.0455C36.9134 96.7197 36.4512 97.2443 35.8565 97.6193C35.2656 97.9943 34.5762 98.1818 33.7884 98.1818ZM33.7884 96.9773C34.3868 96.9773 34.8793 96.8239 35.2656 96.517C35.652 96.2102 35.938 95.8068 36.1236 95.3068C36.3092 94.8068 36.402 94.2652 36.402 93.6818C36.402 93.0985 36.3092 92.5549 36.1236 92.0511C35.938 91.5473 35.652 91.1402 35.2656 90.8295C34.8793 90.5189 34.3868 90.3636 33.7884 90.3636C33.1899 90.3636 32.6974 90.5189 32.3111 90.8295C31.9247 91.1402 31.6387 91.5473 31.4531 92.0511C31.2675 92.5549 31.1747 93.0985 31.1747 93.6818C31.1747 94.2652 31.2675 94.8068 31.4531 95.3068C31.6387 95.8068 31.9247 96.2102 32.3111 96.517C32.6974 96.8239 33.1899 96.9773 33.7884 96.9773ZM46.267 86L46.9489 86.8182C46.6837 87.0758 46.3769 87.2557 46.0284 87.358C45.6799 87.4602 45.286 87.5227 44.8466 87.5455C44.4072 87.5682 43.9186 87.5909 43.3807 87.6136C42.7746 87.6364 42.2727 87.7841 41.875 88.0568C41.4773 88.3295 41.1705 88.7235 40.9545 89.2386C40.7386 89.7538 40.6004 90.3864 40.5398 91.1364H40.6534C40.9489 90.5909 41.358 90.1894 41.8807 89.9318C42.4034 89.6742 42.964 89.5455 43.5625 89.5455C44.2443 89.5455 44.858 89.7045 45.4034 90.0227C45.9489 90.3409 46.3807 90.8125 46.6989 91.4375C47.017 92.0625 47.1761 92.8333 47.1761 93.75C47.1761 94.6629 47.0133 95.4508 46.6875 96.1136C46.3655 96.7765 45.9129 97.2879 45.3295 97.6477C44.75 98.0038 44.0701 98.1818 43.2898 98.1818C42.5095 98.1818 41.8258 97.9981 41.2386 97.6307C40.6515 97.2595 40.1951 96.7102 39.8693 95.983C39.5436 95.2519 39.3807 94.3485 39.3807 93.2727V92.3409C39.3807 90.3977 39.7102 88.9242 40.3693 87.9205C41.0322 86.9167 42.0284 86.3977 43.358 86.3636C43.8277 86.3485 44.2462 86.3447 44.6136 86.3523C44.9811 86.3598 45.3011 86.3428 45.5739 86.3011C45.8466 86.2595 46.0777 86.1591 46.267 86ZM43.2898 96.9773C43.8163 96.9773 44.2689 96.8447 44.6477 96.5795C45.0303 96.3144 45.3239 95.9413 45.5284 95.4602C45.733 94.9754 45.8352 94.4053 45.8352 93.75C45.8352 93.1136 45.7311 92.572 45.5227 92.125C45.3182 91.678 45.0246 91.3371 44.642 91.1023C44.2595 90.8674 43.8011 90.75 43.267 90.75C42.8769 90.75 42.5265 90.8163 42.2159 90.9489C41.9053 91.0814 41.6402 91.2765 41.4205 91.5341C41.2008 91.7917 41.0303 92.1061 40.9091 92.4773C40.7917 92.8485 40.7292 93.2727 40.7216 93.75C40.7216 94.7273 40.9508 95.5095 41.4091 96.0966C41.8674 96.6837 42.4943 96.9773 43.2898 96.9773ZM51.7955 98.2045C51.2424 98.2045 50.7405 98.1004 50.2898 97.892C49.839 97.6799 49.4811 97.375 49.2159 96.9773C48.9508 96.5758 48.8182 96.0909 48.8182 95.5227C48.8182 95.0227 48.9167 94.6174 49.1136 94.3068C49.3106 93.9924 49.5739 93.7462 49.9034 93.5682C50.233 93.3902 50.5966 93.2576 50.9943 93.1705C51.3958 93.0795 51.7992 93.0076 52.2045 92.9545C52.7348 92.8864 53.1648 92.8352 53.4943 92.8011C53.8277 92.7633 54.0701 92.7008 54.2216 92.6136C54.3769 92.5265 54.4545 92.375 54.4545 92.1591V92.1136C54.4545 91.553 54.3011 91.1174 53.9943 90.8068C53.6913 90.4962 53.2311 90.3409 52.6136 90.3409C51.9735 90.3409 51.4716 90.4811 51.108 90.7614C50.7443 91.0417 50.4886 91.3409 50.3409 91.6591L49.0682 91.2045C49.2955 90.6742 49.5985 90.2614 49.9773 89.9659C50.3598 89.6667 50.7765 89.4583 51.2273 89.3409C51.6818 89.2197 52.1288 89.1591 52.5682 89.1591C52.8485 89.1591 53.1705 89.1932 53.5341 89.2614C53.9015 89.3258 54.2557 89.4602 54.5966 89.6648C54.9413 89.8693 55.2273 90.178 55.4545 90.5909C55.6818 91.0038 55.7955 91.5568 55.7955 92.25V98H54.4545V96.8182H54.3864C54.2955 97.0076 54.1439 97.2102 53.9318 97.4261C53.7197 97.642 53.4375 97.8258 53.0852 97.9773C52.733 98.1288 52.303 98.2045 51.7955 98.2045ZM52 97C52.5303 97 52.9773 96.8958 53.3409 96.6875C53.7083 96.4792 53.9848 96.2102 54.1705 95.8807C54.3598 95.5511 54.4545 95.2045 54.4545 94.8409V93.6136C54.3977 93.6818 54.2727 93.7443 54.0795 93.8011C53.8902 93.8542 53.6705 93.9015 53.4205 93.9432C53.1742 93.9811 52.9337 94.0152 52.6989 94.0455C52.4678 94.072 52.2803 94.0947 52.1364 94.1136C51.7879 94.1591 51.4621 94.233 51.1591 94.3352C50.8598 94.4337 50.6174 94.5833 50.4318 94.7841C50.25 94.9811 50.1591 95.25 50.1591 95.5909C50.1591 96.0568 50.3314 96.4091 50.6761 96.6477C51.0246 96.8826 51.4659 97 52 97ZM58.2429 98V89.2727H61.8111C62.7505 89.2727 63.4967 89.4848 64.0497 89.9091C64.6027 90.3333 64.8793 90.8939 64.8793 91.5909C64.8793 92.1212 64.7221 92.5322 64.4077 92.8239C64.0933 93.1117 63.6899 93.3068 63.1974 93.4091C63.5194 93.4545 63.8319 93.5682 64.1349 93.75C64.4418 93.9318 64.6955 94.1818 64.8963 94.5C65.0971 94.8144 65.1974 95.2008 65.1974 95.6591C65.1974 96.1061 65.0838 96.5057 64.8565 96.858C64.6293 97.2102 64.3035 97.4886 63.8793 97.6932C63.455 97.8977 62.9474 98 62.3565 98H58.2429ZM59.5156 96.7727H62.3565C62.8187 96.7727 63.1804 96.6629 63.4418 96.4432C63.7031 96.2235 63.8338 95.9242 63.8338 95.5455C63.8338 95.0947 63.7031 94.7405 63.4418 94.483C63.1804 94.2216 62.8187 94.0909 62.3565 94.0909H59.5156V96.7727ZM59.5156 92.9318H61.8111C62.1709 92.9318 62.4796 92.8826 62.7372 92.7841C62.9948 92.6818 63.1918 92.5379 63.3281 92.3523C63.4683 92.1629 63.5384 91.9394 63.5384 91.6818C63.5384 91.3144 63.3849 91.0265 63.0781 90.8182C62.7713 90.6061 62.349 90.5 61.8111 90.5H59.5156V92.9318ZM66.7273 90.5227V89.2727H73.8182V90.5227H70.9545V98H69.6136V90.5227H66.7273ZM76.9332 92.4318H79.4332C80.456 92.4318 81.2382 92.6913 81.7798 93.2102C82.3215 93.7292 82.5923 94.3864 82.5923 95.1818C82.5923 95.7045 82.4711 96.1799 82.2287 96.608C81.9863 97.0322 81.6302 97.3712 81.1605 97.625C80.6908 97.875 80.1151 98 79.4332 98H75.7741V89.2727H77.1151V96.75H79.4332C79.9635 96.75 80.3991 96.6098 80.7401 96.3295C81.081 96.0492 81.2514 95.6894 81.2514 95.25C81.2514 94.7879 81.081 94.411 80.7401 94.1193C80.3991 93.8277 79.9635 93.6818 79.4332 93.6818H76.9332V92.4318ZM88.2926 98.1818C87.4517 98.1818 86.7263 97.9962 86.1165 97.625C85.5104 97.25 85.0426 96.7273 84.7131 96.0568C84.3873 95.3826 84.2244 94.5985 84.2244 93.7045C84.2244 92.8106 84.3873 92.0227 84.7131 91.3409C85.0426 90.6553 85.5009 90.1212 86.0881 89.7386C86.679 89.3523 87.3684 89.1591 88.1562 89.1591C88.6108 89.1591 89.0597 89.2348 89.5028 89.3864C89.946 89.5379 90.3494 89.7841 90.7131 90.125C91.0767 90.4621 91.3665 90.9091 91.5824 91.4659C91.7983 92.0227 91.9062 92.7083 91.9062 93.5227V94.0909H85.179V92.9318H90.5426C90.5426 92.4394 90.4441 92 90.2472 91.6136C90.054 91.2273 89.7775 90.9223 89.4176 90.6989C89.0616 90.4754 88.6411 90.3636 88.1562 90.3636C87.6222 90.3636 87.16 90.4962 86.7699 90.7614C86.3835 91.0227 86.0862 91.3636 85.8778 91.7841C85.6695 92.2045 85.5653 92.6553 85.5653 93.1364V93.9091C85.5653 94.5682 85.679 95.1269 85.9062 95.5852C86.1373 96.0398 86.4574 96.3864 86.8665 96.625C87.2756 96.8598 87.7509 96.9773 88.2926 96.9773C88.6449 96.9773 88.9631 96.928 89.2472 96.8295C89.535 96.7273 89.7831 96.5758 89.9915 96.375C90.1998 96.1705 90.3608 95.9167 90.4744 95.6136L91.7699 95.9773C91.6335 96.4167 91.4044 96.803 91.0824 97.1364C90.7604 97.4659 90.3627 97.7235 89.8892 97.9091C89.4157 98.0909 88.8835 98.1818 88.2926 98.1818ZM101.991 100.977V86.3636H103.332V100.977H101.991ZM101.991 98.1818C101.401 98.1818 100.863 98.0758 100.378 97.8636C99.893 97.6477 99.4763 97.3428 99.1278 96.9489C98.7794 96.5511 98.5104 96.0758 98.321 95.5227C98.1316 94.9697 98.0369 94.3561 98.0369 93.6818C98.0369 93 98.1316 92.3826 98.321 91.8295C98.5104 91.2727 98.7794 90.7955 99.1278 90.3977C99.4763 90 99.893 89.6951 100.378 89.483C100.863 89.267 101.401 89.1591 101.991 89.1591H102.401V98.1818H101.991ZM101.991 96.9773H102.219V90.3636H101.991C101.545 90.3636 101.156 90.4545 100.827 90.6364C100.497 90.8144 100.224 91.0587 100.009 91.3693C99.7964 91.6761 99.6373 92.0284 99.5312 92.4261C99.429 92.8239 99.3778 93.2424 99.3778 93.6818C99.3778 94.2652 99.4706 94.8068 99.6562 95.3068C99.8419 95.8068 100.128 96.2102 100.514 96.517C100.901 96.8239 101.393 96.9773 101.991 96.9773ZM103.332 98.1818H102.923V89.1591H103.332C103.923 89.1591 104.461 89.267 104.946 89.483C105.431 89.6951 105.848 90 106.196 90.3977C106.545 90.7955 106.813 91.2727 107.003 91.8295C107.192 92.3826 107.287 93 107.287 93.6818C107.287 94.3561 107.192 94.9697 107.003 95.5227C106.813 96.0758 106.545 96.5511 106.196 96.9489C105.848 97.3428 105.431 97.6477 104.946 97.8636C104.461 98.0758 103.923 98.1818 103.332 98.1818ZM103.332 96.9773C103.783 96.9773 104.171 96.8902 104.497 96.7159C104.827 96.5379 105.098 96.2955 105.31 95.9886C105.526 95.678 105.685 95.3258 105.787 94.9318C105.893 94.5341 105.946 94.1174 105.946 93.6818C105.946 93.0985 105.853 92.5549 105.668 92.0511C105.482 91.5473 105.196 91.1402 104.81 90.8295C104.423 90.5189 103.931 90.3636 103.332 90.3636H103.105V96.9773H103.332ZM112.882 98.1818C112.094 98.1818 111.403 97.9943 110.808 97.6193C110.217 97.2443 109.755 96.7197 109.422 96.0455C109.092 95.3712 108.928 94.5833 108.928 93.6818C108.928 92.7727 109.092 91.9792 109.422 91.3011C109.755 90.6231 110.217 90.0966 110.808 89.7216C111.403 89.3466 112.094 89.1591 112.882 89.1591C113.67 89.1591 114.359 89.3466 114.95 89.7216C115.545 90.0966 116.007 90.6231 116.337 91.3011C116.67 91.9792 116.837 92.7727 116.837 93.6818C116.837 94.5833 116.67 95.3712 116.337 96.0455C116.007 96.7197 115.545 97.2443 114.95 97.6193C114.359 97.9943 113.67 98.1818 112.882 98.1818ZM112.882 96.9773C113.481 96.9773 113.973 96.8239 114.359 96.517C114.746 96.2102 115.032 95.8068 115.217 95.3068C115.403 94.8068 115.496 94.2652 115.496 93.6818C115.496 93.0985 115.403 92.5549 115.217 92.0511C115.032 91.5473 114.746 91.1402 114.359 90.8295C113.973 90.5189 113.481 90.3636 112.882 90.3636C112.284 90.3636 111.791 90.5189 111.405 90.8295C111.018 91.1402 110.732 91.5473 110.547 92.0511C110.361 92.5549 110.268 93.0985 110.268 93.6818C110.268 94.2652 110.361 94.8068 110.547 95.3068C110.732 95.8068 111.018 96.2102 111.405 96.517C111.791 96.8239 112.284 96.9773 112.882 96.9773ZM117.743 90.5227V89.2727H124.834V90.5227H121.97V98H120.629V90.5227H117.743ZM129.882 98.1818C129.094 98.1818 128.403 97.9943 127.808 97.6193C127.217 97.2443 126.755 96.7197 126.422 96.0455C126.092 95.3712 125.928 94.5833 125.928 93.6818C125.928 92.7727 126.092 91.9792 126.422 91.3011C126.755 90.6231 127.217 90.0966 127.808 89.7216C128.403 89.3466 129.094 89.1591 129.882 89.1591C130.67 89.1591 131.359 89.3466 131.95 89.7216C132.545 90.0966 133.007 90.6231 133.337 91.3011C133.67 91.9792 133.837 92.7727 133.837 93.6818C133.837 94.5833 133.67 95.3712 133.337 96.0455C133.007 96.7197 132.545 97.2443 131.95 97.6193C131.359 97.9943 130.67 98.1818 129.882 98.1818ZM129.882 96.9773C130.481 96.9773 130.973 96.8239 131.359 96.517C131.746 96.2102 132.032 95.8068 132.217 95.3068C132.403 94.8068 132.496 94.2652 132.496 93.6818C132.496 93.0985 132.403 92.5549 132.217 92.0511C132.032 91.5473 131.746 91.1402 131.359 90.8295C130.973 90.5189 130.481 90.3636 129.882 90.3636C129.284 90.3636 128.791 90.5189 128.405 90.8295C128.018 91.1402 127.732 91.5473 127.547 92.0511C127.361 92.5549 127.268 93.0985 127.268 93.6818C127.268 94.2652 127.361 94.8068 127.547 95.3068C127.732 95.8068 128.018 96.2102 128.405 96.517C128.791 96.8239 129.284 96.9773 129.882 96.9773ZM141.27 89.2727V90.5227H137.224V98H135.884V89.2727H141.27ZM143.227 101.273V89.2727H144.523V90.6591H144.682C144.78 90.5076 144.917 90.3144 145.091 90.0795C145.269 89.8409 145.523 89.6288 145.852 89.4432C146.186 89.2538 146.636 89.1591 147.205 89.1591C147.939 89.1591 148.587 89.3428 149.148 89.7102C149.708 90.0777 150.146 90.5985 150.46 91.2727C150.775 91.947 150.932 92.7424 150.932 93.6591C150.932 94.5833 150.775 95.3845 150.46 96.0625C150.146 96.7367 149.71 97.2595 149.153 97.6307C148.597 97.9981 147.955 98.1818 147.227 98.1818C146.667 98.1818 146.218 98.089 145.881 97.9034C145.544 97.714 145.284 97.5 145.102 97.2614C144.92 97.0189 144.78 96.8182 144.682 96.6591H144.568V101.273H143.227ZM144.545 93.6364C144.545 94.2955 144.642 94.8769 144.835 95.3807C145.028 95.8807 145.311 96.2727 145.682 96.5568C146.053 96.8371 146.508 96.9773 147.045 96.9773C147.606 96.9773 148.074 96.8295 148.449 96.5341C148.828 96.2348 149.112 95.8333 149.301 95.3295C149.494 94.822 149.591 94.2576 149.591 93.6364C149.591 93.0227 149.496 92.4697 149.307 91.9773C149.121 91.4811 148.839 91.089 148.46 90.8011C148.085 90.5095 147.614 90.3636 147.045 90.3636C146.5 90.3636 146.042 90.5019 145.67 90.7784C145.299 91.0511 145.019 91.4337 144.83 91.9261C144.64 92.4148 144.545 92.9848 144.545 93.6364ZM155.545 98.2045C154.992 98.2045 154.491 98.1004 154.04 97.892C153.589 97.6799 153.231 97.375 152.966 96.9773C152.701 96.5758 152.568 96.0909 152.568 95.5227C152.568 95.0227 152.667 94.6174 152.864 94.3068C153.061 93.9924 153.324 93.7462 153.653 93.5682C153.983 93.3902 154.347 93.2576 154.744 93.1705C155.146 93.0795 155.549 93.0076 155.955 92.9545C156.485 92.8864 156.915 92.8352 157.244 92.8011C157.578 92.7633 157.82 92.7008 157.972 92.6136C158.127 92.5265 158.205 92.375 158.205 92.1591V92.1136C158.205 91.553 158.051 91.1174 157.744 90.8068C157.441 90.4962 156.981 90.3409 156.364 90.3409C155.723 90.3409 155.222 90.4811 154.858 90.7614C154.494 91.0417 154.239 91.3409 154.091 91.6591L152.818 91.2045C153.045 90.6742 153.348 90.2614 153.727 89.9659C154.11 89.6667 154.527 89.4583 154.977 89.3409C155.432 89.2197 155.879 89.1591 156.318 89.1591C156.598 89.1591 156.92 89.1932 157.284 89.2614C157.652 89.3258 158.006 89.4602 158.347 89.6648C158.691 89.8693 158.977 90.178 159.205 90.5909C159.432 91.0038 159.545 91.5568 159.545 92.25V98H158.205V96.8182H158.136C158.045 97.0076 157.894 97.2102 157.682 97.4261C157.47 97.642 157.188 97.8258 156.835 97.9773C156.483 98.1288 156.053 98.2045 155.545 98.2045ZM155.75 97C156.28 97 156.727 96.8958 157.091 96.6875C157.458 96.4792 157.735 96.2102 157.92 95.8807C158.11 95.5511 158.205 95.2045 158.205 94.8409V93.6136C158.148 93.6818 158.023 93.7443 157.83 93.8011C157.64 93.8542 157.42 93.9015 157.17 93.9432C156.924 93.9811 156.684 94.0152 156.449 94.0455C156.218 94.072 156.03 94.0947 155.886 94.1136C155.538 94.1591 155.212 94.233 154.909 94.3352C154.61 94.4337 154.367 94.5833 154.182 94.7841C154 94.9811 153.909 95.25 153.909 95.5909C153.909 96.0568 154.081 96.4091 154.426 96.6477C154.775 96.8826 155.216 97 155.75 97ZM165.538 100.977V86.3636H166.879V100.977H165.538ZM165.538 98.1818C164.947 98.1818 164.41 98.0758 163.925 97.8636C163.44 97.6477 163.023 97.3428 162.675 96.9489C162.326 96.5511 162.057 96.0758 161.868 95.5227C161.679 94.9697 161.584 94.3561 161.584 93.6818C161.584 93 161.679 92.3826 161.868 91.8295C162.057 91.2727 162.326 90.7955 162.675 90.3977C163.023 90 163.44 89.6951 163.925 89.483C164.41 89.267 164.947 89.1591 165.538 89.1591H165.947V98.1818H165.538ZM165.538 96.9773H165.766V90.3636H165.538C165.091 90.3636 164.703 90.4545 164.374 90.6364C164.044 90.8144 163.771 91.0587 163.555 91.3693C163.343 91.6761 163.184 92.0284 163.078 92.4261C162.976 92.8239 162.925 93.2424 162.925 93.6818C162.925 94.2652 163.018 94.8068 163.203 95.3068C163.389 95.8068 163.675 96.2102 164.061 96.517C164.447 96.8239 164.94 96.9773 165.538 96.9773ZM166.879 98.1818H166.47V89.1591H166.879C167.47 89.1591 168.008 89.267 168.493 89.483C168.978 89.6951 169.394 90 169.743 90.3977C170.091 90.7955 170.36 91.2727 170.55 91.8295C170.739 92.3826 170.834 93 170.834 93.6818C170.834 94.3561 170.739 94.9697 170.55 95.5227C170.36 96.0758 170.091 96.5511 169.743 96.9489C169.394 97.3428 168.978 97.6477 168.493 97.8636C168.008 98.0758 167.47 98.1818 166.879 98.1818ZM166.879 96.9773C167.33 96.9773 167.718 96.8902 168.044 96.7159C168.374 96.5379 168.644 96.2955 168.857 95.9886C169.072 95.678 169.232 95.3258 169.334 94.9318C169.44 94.5341 169.493 94.1174 169.493 93.6818C169.493 93.0985 169.4 92.5549 169.214 92.0511C169.029 91.5473 168.743 91.1402 168.357 90.8295C167.97 90.5189 167.478 90.3636 166.879 90.3636H166.652V96.9773H166.879ZM174.224 96.0227L178.429 89.2727H179.974V98H178.634V91.25L174.452 98H172.884V89.2727H174.224V96.0227ZM186.612 93.0909V94.3409H181.999V93.0909H186.612ZM183.135 89.2727V98H181.794V89.2727H183.135ZM189.294 98.1818C188.506 98.1818 187.815 97.9943 187.22 97.6193C186.629 97.2443 186.167 96.7197 185.834 96.0455C185.504 95.3712 185.339 94.5833 185.339 93.6818C185.339 92.7727 185.504 91.9792 185.834 91.3011C186.167 90.6231 186.629 90.0966 187.22 89.7216C187.815 89.3466 188.506 89.1591 189.294 89.1591C190.082 89.1591 190.771 89.3466 191.362 89.7216C191.957 90.0966 192.419 90.6231 192.749 91.3011C193.082 91.9792 193.249 92.7727 193.249 93.6818C193.249 94.5833 193.082 95.3712 192.749 96.0455C192.419 96.7197 191.957 97.2443 191.362 97.6193C190.771 97.9943 190.082 98.1818 189.294 98.1818ZM189.294 96.9773C189.893 96.9773 190.385 96.8239 190.771 96.517C191.158 96.2102 191.444 95.8068 191.629 95.3068C191.815 94.8068 191.908 94.2652 191.908 93.6818C191.908 93.0985 191.815 92.5549 191.629 92.0511C191.444 91.5473 191.158 91.1402 190.771 90.8295C190.385 90.5189 189.893 90.3636 189.294 90.3636C188.696 90.3636 188.203 90.5189 187.817 90.8295C187.43 91.1402 187.144 91.5473 186.959 92.0511C186.773 92.5549 186.68 93.0985 186.68 93.6818C186.68 94.2652 186.773 94.8068 186.959 95.3068C187.144 95.8068 187.43 96.2102 187.817 96.517C188.203 96.8239 188.696 96.9773 189.294 96.9773Z" fill="#803838"/>
</svg>
